<?xml version="1.0" encoding="UTF-8" standalone="no"?>
<!-- Created with Inkscape (http://www.inkscape.org/) -->
<svg xmlns:dc="http://purl.org/dc/elements/1.1/" xmlns:cc="http://creativecommons.org/ns#" xmlns:rdf="http://www.w3.org/1999/02/22-rdf-syntax-ns#" xmlns:svg="http://www.w3.org/2000/svg" xmlns="http://www.w3.org/2000/svg" xmlns:xlink="http://www.w3.org/1999/xlink" xmlns:sodipodi="http://sodipodi.sourceforge.net/DTD/sodipodi-0.dtd" xmlns:inkscape="http://www.inkscape.org/namespaces/inkscape" width="300.5" height="300.5" id="svg2" version="1.1" inkscape:version="0.48.4 r9939" sodipodi:docname="etui_logo_v3.svg" inkscape:export-filename="/home/zazooo/etui_logo_v3.png" inkscape:export-xdpi="173" inkscape:export-ydpi="173">
  <defs id="defs4">
    <linearGradient id="linearGradient4679">
      <stop style="stop-color:#000000;stop-opacity:1;" offset="0" id="stop4681"/>
      <stop style="stop-color:#000000;stop-opacity:0;" offset="1" id="stop4683"/>
    </linearGradient>
    <linearGradient id="linearGradient4617">
      <stop style="stop-color:#ffffff;stop-opacity:1;" offset="0" id="stop4619"/>
      <stop id="stop4625" offset="0.5" style="stop-color:#ffffff;stop-opacity:0;"/>
      <stop style="stop-color:#ffffff;stop-opacity:1;" offset="1" id="stop4621"/>
    </linearGradient>
    <linearGradient id="linearGradient4574">
      <stop style="stop-color:#000000;stop-opacity:0.669173;" offset="0" id="stop4576"/>
      <stop style="stop-color:#9e9e9e;stop-opacity:0;" offset="1" id="stop4578"/>
    </linearGradient>
    <linearGradient id="linearGradient4511">
      <stop style="stop-color:#cd7d2c;stop-opacity:1;" offset="0" id="stop4513"/>
      <stop style="stop-color:#f3c026;stop-opacity:1;" offset="1" id="stop4515"/>
    </linearGradient>
    <linearGradient id="linearGradient4501">
      <stop id="stop4503" offset="0" style="stop-color:#80001b;stop-opacity:1;"/>
      <stop id="stop4505" offset="1" style="stop-color:#e40046;stop-opacity:1;"/>
    </linearGradient>
    <linearGradient id="linearGradient4489">
      <stop style="stop-color:#2d5e9e;stop-opacity:1;" offset="0" id="stop4491"/>
      <stop style="stop-color:#47899e;stop-opacity:1;" offset="1" id="stop4493"/>
    </linearGradient>
    <linearGradient id="linearGradient4466">
      <stop style="stop-color:#bd7d53;stop-opacity:1;" offset="0" id="stop4468"/>
      <stop id="stop4470" offset="0.38554505" style="stop-color:#c88559;stop-opacity:1;"/>
      <stop style="stop-color:#dfac7e;stop-opacity:1;" offset="1" id="stop4472"/>
    </linearGradient>
    <linearGradient id="linearGradient4361">
      <stop id="stop4363" offset="0" style="stop-color:#8a4615;stop-opacity:1;"/>
      <stop id="stop4365" offset="1" style="stop-color:#a75c3f;stop-opacity:1;"/>
    </linearGradient>
    <linearGradient id="linearGradient4350">
      <stop style="stop-color:#3f2014;stop-opacity:1;" offset="0" id="stop4352"/>
      <stop style="stop-color:#7d3e20;stop-opacity:1;" offset="1" id="stop4354"/>
    </linearGradient>
    <linearGradient id="linearGradient4905">
      <stop id="stop4907" offset="0" style="stop-color:#bd7d53;stop-opacity:1;"/>
      <stop style="stop-color:#c88559;stop-opacity:1;" offset="0.27845046" id="stop4909"/>
      <stop id="stop4911" offset="1" style="stop-color:#dfac7e;stop-opacity:1;"/>
    </linearGradient>
    <linearGradient id="linearGradient4897">
      <stop id="stop4899" offset="0" style="stop-color:#573118;stop-opacity:1;"/>
      <stop id="stop4901" offset="1" style="stop-color:#542f17;stop-opacity:1;"/>
    </linearGradient>
    <linearGradient id="linearGradient4521">
      <stop id="stop4523" offset="0" style="stop-color:#bd7d53;stop-opacity:1;"/>
      <stop id="stop4525" offset="1" style="stop-color:#d38d5f;stop-opacity:1;"/>
    </linearGradient>
    <linearGradient id="linearGradient4441">
      <stop id="stop4443" offset="0" style="stop-color:#585858;stop-opacity:1;"/>
      <stop style="stop-color:#cfcfcf;stop-opacity:1;" offset="0.61215323" id="stop4445"/>
      <stop style="stop-color:#dadada;stop-opacity:1;" offset="0.72562736" id="stop4447"/>
      <stop id="stop4449" offset="1" style="stop-color:#f0f0f0;stop-opacity:1;"/>
    </linearGradient>
    <linearGradient id="linearGradient4425">
      <stop style="stop-color:#bd7d53;stop-opacity:1;" offset="0" id="stop4427"/>
      <stop id="stop4903" offset="0.5" style="stop-color:#c88559;stop-opacity:1;"/>
      <stop style="stop-color:#dfac7e;stop-opacity:1;" offset="1" id="stop4429"/>
    </linearGradient>
    <linearGradient id="linearGradient4417">
      <stop style="stop-color:#573118;stop-opacity:1;" offset="0" id="stop4419"/>
      <stop style="stop-color:#a05a2c;stop-opacity:1;" offset="1" id="stop4421"/>
    </linearGradient>
    <linearGradient id="linearGradient4409">
      <stop style="stop-color:#585858;stop-opacity:1;" offset="0" id="stop4411"/>
      <stop id="stop4439" offset="0.25" style="stop-color:#cfcfcf;stop-opacity:1;"/>
      <stop id="stop4437" offset="0.5" style="stop-color:#dadada;stop-opacity:1;"/>
      <stop style="stop-color:#f0f0f0;stop-opacity:1;" offset="1" id="stop4413"/>
    </linearGradient>
    <linearGradient id="linearGradient4331">
      <stop id="stop4333" offset="0" style="stop-color:#492b16;stop-opacity:0;"/>
      <stop style="stop-color:#9e5d30;stop-opacity:0;" offset="0.5" id="stop4335"/>
      <stop id="stop4337" offset="1" style="stop-color:#6a3e20;stop-opacity:1;"/>
    </linearGradient>
    <linearGradient id="linearGradient4311">
      <stop style="stop-color:#150c06;stop-opacity:1;" offset="0" id="stop4313"/>
      <stop id="stop4319" offset="0.5" style="stop-color:#8a511c;stop-opacity:1;"/>
      <stop style="stop-color:#3d2413;stop-opacity:1;" offset="1" id="stop4315"/>
    </linearGradient>
    <linearGradient id="linearGradient3773">
      <stop style="stop-color:#552200;stop-opacity:1;" offset="0" id="stop3775"/>
      <stop style="stop-color:#552200;stop-opacity:0.32330826;" offset="1" id="stop3777"/>
    </linearGradient>
    <linearGradient id="linearGradient3759">
      <stop style="stop-color:#764c31;stop-opacity:0;" offset="0" id="stop3761"/>
      <stop id="stop3767" offset="0.39905974" style="stop-color:#875432;stop-opacity:0.12781955;"/>
      <stop style="stop-color:#673e23;stop-opacity:1;" offset="1" id="stop3763"/>
    </linearGradient>
    <filter id="filter4273" inkscape:label="Dots transparency" x="0" y="0" width="1" height="1" inkscape:menu="Image effects, transparent" inkscape:menu-tooltip="Gives a pointillist HSL sensitive transparency" color-interpolation-filters="sRGB">
      <feTurbulence id="feTurbulence4275" result="result1" numOctaves="3" baseFrequency="1" type="fractalNoise" seed="50"/>
      <feColorMatrix id="feColorMatrix4277" result="result0" in="SourceGraphic" type="luminanceToAlpha"/>
      <feColorMatrix id="feColorMatrix4279" values="1 0 0 0 0 0 1 0 0 0 0 0 1 0 0 0 0 0 0.7 0 " result="result2"/>
      <feComposite id="feComposite4281" in2="result2" in="result1" operator="over" result="result3"/>
      <feColorMatrix id="feColorMatrix4283" values="1 0 0 0 0 0 1 0 0 0 0 0 1 0 0 0 0 0 5 -3.2 " result="result91"/>
      <feComposite id="feComposite4285" in2="result91" operator="out" in="SourceGraphic" result="result4"/>
    </filter>
    <filter id="filter4295" inkscape:label="Dots transparency" x="0" y="0" width="1" height="1" inkscape:menu="Image effects, transparent" inkscape:menu-tooltip="Gives a pointillist HSL sensitive transparency" color-interpolation-filters="sRGB">
      <feTurbulence id="feTurbulence4297" result="result1" numOctaves="3" baseFrequency="1" type="fractalNoise" seed="50"/>
      <feColorMatrix id="feColorMatrix4299" result="result0" in="SourceGraphic" type="luminanceToAlpha"/>
      <feColorMatrix id="feColorMatrix4301" values="1 0 0 0 0 0 1 0 0 0 0 0 1 0 0 0 0 0 0.7 0 " result="result2"/>
      <feComposite id="feComposite4303" in2="result2" in="result1" operator="over" result="result3"/>
      <feColorMatrix id="feColorMatrix4305" values="1 0 0 0 0 0 1 0 0 0 0 0 1 0 0 0 0 0 5 -3.2 " result="result91"/>
      <feComposite id="feComposite4307" in2="result91" operator="out" in="SourceGraphic" result="result4"/>
    </filter>
    <filter id="filter4365" inkscape:label="Dots transparency" x="0" y="0" width="1" height="1" inkscape:menu="Image effects, transparent" inkscape:menu-tooltip="Gives a pointillist HSL sensitive transparency" color-interpolation-filters="sRGB">
      <feTurbulence id="feTurbulence4367" result="result1" numOctaves="3" baseFrequency="1" type="fractalNoise" seed="50"/>
      <feColorMatrix id="feColorMatrix4369" result="result0" in="SourceGraphic" type="luminanceToAlpha"/>
      <feColorMatrix id="feColorMatrix4371" values="1 0 0 0 0 0 1 0 0 0 0 0 1 0 0 0 0 0 0.7 0 " result="result2"/>
      <feComposite id="feComposite4373" in2="result2" in="result1" operator="over" result="result3"/>
      <feColorMatrix id="feColorMatrix4375" values="1 0 0 0 0 0 1 0 0 0 0 0 1 0 0 0 0 0 5 -3.2 " result="result91"/>
      <feComposite id="feComposite4377" in2="result91" operator="out" in="SourceGraphic" result="result4"/>
    </filter>
    <linearGradient inkscape:collect="always" xlink:href="#linearGradient4409" id="linearGradient4415" x1="466.77304" y1="421.67975" x2="466.65213" y2="394.30939" gradientUnits="userSpaceOnUse" gradientTransform="matrix(0.91332178,0,0,1,54.752664,-818.90091)"/>
    <linearGradient inkscape:collect="always" xlink:href="#linearGradient4417" id="linearGradient4423" x1="353.3165" y1="272.26208" x2="410.08316" y2="271.67975" gradientUnits="userSpaceOnUse" gradientTransform="matrix(0.91332178,0,0,1,54.752664,0)"/>
    <linearGradient inkscape:collect="always" xlink:href="#linearGradient4425" id="linearGradient4431" x1="584.50134" y1="350.95984" x2="525.38934" y2="144.22644" gradientUnits="userSpaceOnUse" gradientTransform="matrix(0.91332178,0,0,1.0007477,54.752664,-0.29742254)"/>
    <linearGradient inkscape:collect="always" xlink:href="#linearGradient4441" id="linearGradient4435" gradientUnits="userSpaceOnUse" gradientTransform="matrix(0.91332178,0,0,1,54.752664,-818.90091)" x1="540.07025" y1="455.44586" x2="550.65564" y2="391.01514"/>
    <filter id="filter4469" inkscape:label="Inner Shadow" inkscape:menu="Shadows and Glows" inkscape:menu-tooltip="Adds a colorizable drop shadow inside" color-interpolation-filters="sRGB">
      <feGaussianBlur id="feGaussianBlur4471" stdDeviation="4" result="result8"/>
      <feOffset id="feOffset4473" dx="4" dy="4" result="result11"/>
      <feComposite id="feComposite4475" in2="result11" result="result6" in="SourceGraphic" operator="in"/>
      <feFlood id="feFlood4477" result="result10" in="result6" flood-opacity="1" flood-color="rgb(0,0,0)"/>
      <feBlend id="feBlend4479" in2="result10" mode="normal" in="result6" result="result12"/>
      <feComposite id="feComposite4481" in2="SourceGraphic" result="result2" operator="in"/>
    </filter>
    <linearGradient inkscape:collect="always" xlink:href="#linearGradient4441" id="linearGradient4483" gradientUnits="userSpaceOnUse" x1="540.07025" y1="455.44586" x2="550.65564" y2="391.01514"/>
    <linearGradient inkscape:collect="always" xlink:href="#linearGradient4905" id="linearGradient4515" x1="609.71796" y1="279.58691" x2="588.17108" y2="231.83443" gradientUnits="userSpaceOnUse"/>
    <linearGradient inkscape:collect="always" xlink:href="#linearGradient4897" id="linearGradient4519" gradientUnits="userSpaceOnUse" x1="524.11285" y1="261.53415" x2="623.69427" y2="261.53415" gradientTransform="translate(-1148.0984,3.2029117)"/>
    <linearGradient inkscape:collect="always" xlink:href="#linearGradient4417" id="linearGradient4529" gradientUnits="userSpaceOnUse" gradientTransform="matrix(0.26315788,0,0,1.3793104,-761.90992,-93.087959)" x1="524.11285" y1="261.53415" x2="623.69427" y2="261.53415"/>
    <filter id="filter4883" inkscape:label="Inner Shadow" inkscape:menu="Shadows and Glows" inkscape:menu-tooltip="Adds a colorizable drop shadow inside" color-interpolation-filters="sRGB">
      <feGaussianBlur id="feGaussianBlur4885" stdDeviation="4" result="result8"/>
      <feOffset id="feOffset4887" dx="4" dy="4" result="result11"/>
      <feComposite id="feComposite4889" in2="result11" result="result6" in="SourceGraphic" operator="in"/>
      <feFlood id="feFlood4891" result="result10" in="result6" flood-opacity="1" flood-color="rgb(0,0,0)"/>
      <feBlend id="feBlend4893" in2="result10" mode="normal" in="result6" result="result12"/>
      <feComposite id="feComposite4895" in2="SourceGraphic" result="result2" operator="in"/>
    </filter>
    <linearGradient inkscape:collect="always" xlink:href="#linearGradient4417" id="linearGradient5019" gradientUnits="userSpaceOnUse" gradientTransform="matrix(0.26315788,0,0,1.3793104,-761.90992,-93.087959)" x1="524.11285" y1="261.53415" x2="623.69427" y2="261.53415"/>
    <linearGradient inkscape:collect="always" xlink:href="#linearGradient4417" id="linearGradient5021" gradientUnits="userSpaceOnUse" gradientTransform="matrix(0.91332178,0,0,1,54.752664,0)" x1="353.3165" y1="272.26208" x2="410.08316" y2="271.67975"/>
    <linearGradient inkscape:collect="always" xlink:href="#linearGradient4409" id="linearGradient5023" gradientUnits="userSpaceOnUse" gradientTransform="matrix(0.91332178,0,0,1,54.752664,-818.90091)" x1="466.77304" y1="421.67975" x2="466.65213" y2="394.30939"/>
    <linearGradient inkscape:collect="always" xlink:href="#linearGradient4425" id="linearGradient5025" gradientUnits="userSpaceOnUse" gradientTransform="matrix(0.91332178,0,0,1.0007477,54.752664,-0.29742254)" x1="584.50134" y1="350.95984" x2="525.38934" y2="144.22644"/>
    <linearGradient inkscape:collect="always" xlink:href="#linearGradient4441" id="linearGradient5027" gradientUnits="userSpaceOnUse" gradientTransform="matrix(0.91332178,0,0,1,54.752664,-818.90091)" x1="540.07025" y1="455.44586" x2="550.65564" y2="391.01514"/>
    <linearGradient inkscape:collect="always" xlink:href="#linearGradient4441" id="linearGradient5029" gradientUnits="userSpaceOnUse" x1="540.07025" y1="455.44586" x2="550.65564" y2="391.01514"/>
    <linearGradient inkscape:collect="always" xlink:href="#linearGradient4897" id="linearGradient5031" gradientUnits="userSpaceOnUse" gradientTransform="translate(-1148.0984,3.2029117)" x1="524.11285" y1="261.53415" x2="623.69427" y2="261.53415"/>
    <linearGradient inkscape:collect="always" xlink:href="#linearGradient4905" id="linearGradient5033" gradientUnits="userSpaceOnUse" x1="609.71796" y1="279.58691" x2="588.17108" y2="231.83443"/>
    <linearGradient inkscape:collect="always" xlink:href="#linearGradient4417" id="linearGradient4480" gradientUnits="userSpaceOnUse" gradientTransform="matrix(0.26315788,0,0,1.3793104,-457.38642,-42.536576)" x1="524.11285" y1="261.53415" x2="623.69427" y2="261.53415"/>
    <linearGradient inkscape:collect="always" xlink:href="#linearGradient4417" id="linearGradient4482" gradientUnits="userSpaceOnUse" gradientTransform="matrix(0.91332178,0,0,1,-249.77084,50.551383)" x1="353.3165" y1="272.26208" x2="410.08316" y2="271.67975"/>
    <linearGradient inkscape:collect="always" xlink:href="#linearGradient4409" id="linearGradient4484" gradientUnits="userSpaceOnUse" gradientTransform="matrix(0.91332178,0,0,1,-249.77084,-869.4523)" x1="466.77304" y1="421.67975" x2="466.65213" y2="394.30939"/>
    <linearGradient inkscape:collect="always" xlink:href="#linearGradient4425" id="linearGradient4486" gradientUnits="userSpaceOnUse" gradientTransform="matrix(0.91332178,0,0,1.0007477,-249.77084,50.25396)" x1="584.50134" y1="350.95984" x2="525.38934" y2="144.22644"/>
    <linearGradient inkscape:collect="always" xlink:href="#linearGradient4441" id="linearGradient4488" gradientUnits="userSpaceOnUse" gradientTransform="matrix(0.91332178,0,0,1,-249.77084,-869.4523)" x1="540.07025" y1="455.44586" x2="550.65564" y2="391.01514"/>
    <linearGradient inkscape:collect="always" xlink:href="#linearGradient4441" id="linearGradient4490" gradientUnits="userSpaceOnUse" x1="540.07025" y1="455.44586" x2="550.65564" y2="391.01514"/>
    <linearGradient inkscape:collect="always" xlink:href="#linearGradient4897" id="linearGradient4492" gradientUnits="userSpaceOnUse" gradientTransform="translate(-843.57486,53.754295)" x1="524.11285" y1="261.53415" x2="623.69427" y2="261.53415"/>
    <linearGradient inkscape:collect="always" xlink:href="#linearGradient4905" id="linearGradient4494" gradientUnits="userSpaceOnUse" gradientTransform="translate(-304.5235,50.551383)" x1="609.71796" y1="279.58691" x2="588.17108" y2="231.83443"/>
    <linearGradient inkscape:collect="always" xlink:href="#linearGradient4417" id="linearGradient4666" gradientUnits="userSpaceOnUse" gradientTransform="matrix(0.26315788,0,0,1.3793104,-457.38642,-42.536576)" x1="524.11285" y1="261.53415" x2="623.69427" y2="261.53415"/>
    <linearGradient inkscape:collect="always" xlink:href="#linearGradient4417" id="linearGradient4668" gradientUnits="userSpaceOnUse" gradientTransform="matrix(0.91332178,0,0,1,-249.77084,50.551383)" x1="353.3165" y1="272.26208" x2="410.08316" y2="271.67975"/>
    <linearGradient inkscape:collect="always" xlink:href="#linearGradient4409" id="linearGradient4670" gradientUnits="userSpaceOnUse" gradientTransform="matrix(0.91332178,0,0,1,-249.77084,-869.4523)" x1="466.77304" y1="421.67975" x2="466.65213" y2="394.30939"/>
    <linearGradient inkscape:collect="always" xlink:href="#linearGradient4425" id="linearGradient4672" gradientUnits="userSpaceOnUse" gradientTransform="matrix(0.91332178,0,0,1.0007477,-249.77084,50.25396)" x1="584.50134" y1="350.95984" x2="525.38934" y2="144.22644"/>
    <linearGradient inkscape:collect="always" xlink:href="#linearGradient4441" id="linearGradient4674" gradientUnits="userSpaceOnUse" gradientTransform="matrix(0.91332178,0,0,1,-249.77084,-869.4523)" x1="540.07025" y1="455.44586" x2="550.65564" y2="391.01514"/>
    <linearGradient inkscape:collect="always" xlink:href="#linearGradient4441" id="linearGradient4676" gradientUnits="userSpaceOnUse" x1="540.07025" y1="455.44586" x2="550.65564" y2="391.01514"/>
    <linearGradient inkscape:collect="always" xlink:href="#linearGradient4897" id="linearGradient4678" gradientUnits="userSpaceOnUse" gradientTransform="translate(-843.57486,53.754295)" x1="524.11285" y1="261.53415" x2="623.69427" y2="261.53415"/>
    <linearGradient inkscape:collect="always" xlink:href="#linearGradient4905" id="linearGradient4680" gradientUnits="userSpaceOnUse" gradientTransform="translate(-304.5235,50.551383)" x1="609.71796" y1="279.58691" x2="588.17108" y2="231.83443"/>
    <linearGradient inkscape:collect="always" xlink:href="#linearGradient4617" id="linearGradient4623" x1="55.861435" y1="676.88849" x2="323.1478" y2="887.60632" gradientUnits="userSpaceOnUse" gradientTransform="matrix(0.95228197,0,0,0.82322328,5.9418975,192.04352)"/>
    <linearGradient inkscape:collect="always" xlink:href="#linearGradient4466" id="linearGradient3205" gradientUnits="userSpaceOnUse" gradientTransform="matrix(0.99760658,0,0,0.99760658,-10.306833,11.978331)" x1="189.94208" y1="978.26923" x2="125.94208" y2="770.26923"/>
    <linearGradient inkscape:collect="always" xlink:href="#linearGradient4311" id="linearGradient3208" gradientUnits="userSpaceOnUse" gradientTransform="matrix(0.99760658,0,0,0.99760658,-10.306833,11.978331)" x1="10.923111" y1="1012.1849" x2="310.96103" y2="1012.1849"/>
    <linearGradient inkscape:collect="always" xlink:href="#linearGradient4574" id="linearGradient3211" gradientUnits="userSpaceOnUse" gradientTransform="matrix(0.9923194,0,0,0.99760658,-9.9848352,760.54557)" x1="47.09375" y1="250.58423" x2="378.09683" y2="299.58423"/>
    <linearGradient inkscape:collect="always" xlink:href="#linearGradient4350" id="linearGradient3228" gradientUnits="userSpaceOnUse" gradientTransform="matrix(0.99760658,0,0,0.99760658,-10.306833,11.978331)" x1="10.942071" y1="892.26924" x2="123.94208" y2="890.26923"/>
    <linearGradient inkscape:collect="always" xlink:href="#linearGradient4617" id="linearGradient3242" gradientUnits="userSpaceOnUse" gradientTransform="matrix(0.99760658,0,0,0.99760658,-10.306833,11.978331)" x1="15.5" y1="715.11218" x2="375.5" y2="918.11218"/>
    <linearGradient inkscape:collect="always" xlink:href="#linearGradient4679" id="linearGradient3305" gradientUnits="userSpaceOnUse" gradientTransform="matrix(0.76754793,0.57675926,-0.57675926,0.76754793,-60.390025,46.462849)" x1="837.10822" y1="641.46967" x2="838.24628" y2="666.13812"/>
    <linearGradient inkscape:collect="always" xlink:href="#linearGradient4679" id="linearGradient3307" gradientUnits="userSpaceOnUse" gradientTransform="matrix(0.79753714,0.59929409,-0.59929409,0.79753714,-56.727572,23.794024)" x1="837.10822" y1="641.46967" x2="838.24628" y2="666.13812"/>
    <linearGradient inkscape:collect="always" xlink:href="#linearGradient4511" id="linearGradient3309" gradientUnits="userSpaceOnUse" gradientTransform="matrix(0.73040417,0,0,0.49526604,189.33936,486.02018)" x1="51.688545" y1="1110.8093" x2="35.898178" y2="1136.6188"/>
    <linearGradient inkscape:collect="always" xlink:href="#linearGradient4489" id="linearGradient3311" gradientUnits="userSpaceOnUse" gradientTransform="matrix(0.66553189,0,0,0.49722965,177.95974,468.0562)" x1="51.688545" y1="1110.8093" x2="35.898178" y2="1136.6188"/>
    <linearGradient inkscape:collect="always" xlink:href="#linearGradient4679" id="linearGradient3313" gradientUnits="userSpaceOnUse" gradientTransform="matrix(0.79753714,0.59929409,-0.59929409,0.79753714,-19.285292,11.978333)" x1="837.10822" y1="641.46967" x2="838.24628" y2="666.13812"/>
    <linearGradient inkscape:collect="always" xlink:href="#linearGradient4501" id="linearGradient3315" gradientUnits="userSpaceOnUse" gradientTransform="matrix(0.69498689,0,0,0.52200969,228.09405,443.59171)" x1="51.688545" y1="1110.8093" x2="35.898178" y2="1136.6188"/>
  </defs>
  <sodipodi:namedview id="base" pagecolor="#ffffff" bordercolor="#666666" borderopacity="1.0" inkscape:pageopacity="0.0" inkscape:pageshadow="2" inkscape:zoom="0.70710678" inkscape:cx="89.585325" inkscape:cy="45.922341" inkscape:document-units="px" inkscape:current-layer="layer1" showgrid="false" showguides="true" inkscape:guide-bbox="true" inkscape:window-width="1566" inkscape:window-height="839" inkscape:window-x="200" inkscape:window-y="94" inkscape:window-maximized="0"/>
  <metadata id="metadata7">
    <rdf:RDF>
      <cc:Work rdf:about="">
        <dc:format>image/svg+xml</dc:format>
        <dc:type rdf:resource="http://purl.org/dc/dcmitype/StillImage"/>
        <dc:title/>
      </cc:Work>
    </rdf:RDF>
  </metadata>
  <g inkscape:label="Calque 1" inkscape:groupmode="layer" id="layer1" transform="translate(0,-751.86218)">
    <rect style="opacity:0;fill:#4b4b4b;fill-opacity:1;fill-rule:nonzero;stroke:none" id="rect5356" width="317.57236" height="317.57236" x="-673.36108" y="595.60968" inkscape:export-filename="/home/zazooo/Bureau/etui_logo.png" inkscape:export-xdpi="154.11441" inkscape:export-ydpi="154.11441"/>
    <rect style="fill:url(#linearGradient3228);fill-opacity:1;stroke:none" id="rect3186" width="299.28198" height="299.99963" x="0.60905242" y="752.11218" ry="24.369459"/>
    <path inkscape:connector-curvature="0" id="path4264" d="m 285.57722,1035.6006 -0.21916,0.4596 c 0,0 -76.49451,2.0668 -79.68254,1.2869 -3.18804,-0.78 -85.03644,0.5285 -85.03644,0.5285 0,0 -86.771973,-0.2685 -88.543104,-0.5285 -1.771131,-0.26 -21.979228,1.3098 -21.979228,1.3098 l -5.1347411,2.6887 270.4509531,0 c 0,0 9.94385,0.4617 10.14426,-4.4352 0.009,-1.0154 -0.005,-0.607 0,-1.3098 z" style="fill:#9e9e9e;fill-opacity:1;stroke:none"/>
    <path style="fill:#cfcfcf;fill-opacity:1;stroke:none" d="m 285.83022,1033.2266 -0.21917,0.5285 c 0,0 -76.4945,2.3768 -79.68253,1.4799 -3.18805,-0.897 -85.03645,0.6078 -85.03645,0.6078 0,0 -86.77197,-0.3089 -88.543091,-0.6078 -1.771131,-0.299 -21.979228,1.5063 -21.979228,1.5063 l -5.1347511,3.0918 270.4509501,0 c 0,0 9.94387,0.5309 10.14427,-5.1002 0.009,-1.1677 -0.005,-0.6981 0,-1.5063 z" id="path4172" inkscape:connector-curvature="0"/>
    <path style="fill:#9e9e9e;fill-opacity:1;stroke:none" d="m 285.57722,1031.6386 -0.21916,0.4596 c 0,0 -76.49451,2.0668 -79.68254,1.2869 -3.18804,-0.78 -85.03644,0.5285 -85.03644,0.5285 0,0 -86.771973,-0.2685 -88.543104,-0.5285 -1.771131,-0.26 -21.979228,1.3098 -21.979228,1.3098 l -5.1347411,2.6887 270.4509531,0 c 0,0 9.94385,0.4617 10.14426,-4.4351 0.009,-1.0154 -0.005,-0.6071 0,-1.3099 z" id="path4272" inkscape:connector-curvature="0"/>
    <path inkscape:connector-curvature="0" id="path4274" d="m 285.83022,1029.2646 -0.21917,0.5285 c 0,0 -76.4945,2.3768 -79.68253,1.4799 -3.18805,-0.8969 -85.03645,0.6078 -85.03645,0.6078 0,0 -86.77197,-0.3088 -88.543091,-0.6078 -1.771131,-0.299 -21.979228,1.5063 -21.979228,1.5063 l -5.1347511,3.0918 270.4509501,0 c 0,0 9.94387,0.531 10.14427,-5.1002 0.009,-1.1677 -0.005,-0.6981 0,-1.5063 z" style="fill:#cfcfcf;fill-opacity:1;stroke:none"/>
    <path inkscape:connector-curvature="0" id="path4278" d="m 285.57722,1027.6766 -0.21916,0.4596 c 0,0 -76.49451,2.0669 -79.68254,1.2869 -3.18804,-0.78 -85.03644,0.5285 -85.03644,0.5285 0,0 -86.771973,-0.2685 -88.543104,-0.5285 -1.771131,-0.26 -21.979228,1.3099 -21.979228,1.3099 l -5.1347411,2.6886 270.4509531,0 c 0,0 9.94385,0.4617 10.14426,-4.4351 0.009,-1.0154 -0.005,-0.6071 0,-1.3099 z" style="fill:#9e9e9e;fill-opacity:1;stroke:none"/>
    <path style="fill:#cfcfcf;fill-opacity:1;stroke:none" d="m 285.83022,1025.3026 -0.21917,0.5285 c 0,0 -76.4945,2.3768 -79.68253,1.4799 -3.18805,-0.8969 -85.03645,0.6078 -85.03645,0.6078 0,0 -86.77197,-0.3088 -88.543091,-0.6078 -1.771131,-0.299 -21.979228,1.5063 -21.979228,1.5063 l -5.1347511,3.0919 270.4509501,0 c 0,0 9.94387,0.5309 10.14427,-5.1003 0.009,-1.1677 -0.005,-0.6981 0,-1.5063 z" id="path4280" inkscape:connector-curvature="0"/>
    <path style="fill:#9e9e9e;fill-opacity:1;stroke:none" d="m 285.57722,1023.7147 -0.21916,0.4595 c 0,0 -76.49451,2.0669 -79.68254,1.2869 -3.18804,-0.7799 -85.03644,0.5286 -85.03644,0.5286 0,0 -86.771973,-0.2686 -88.543104,-0.5286 -1.771131,-0.26 -21.979228,1.3099 -21.979228,1.3099 l -5.1347411,2.6886 270.4509531,0 c 0,0 9.94385,0.4618 10.14426,-4.4351 0.009,-1.0154 -0.005,-0.6071 0,-1.3098 z" id="path4284" inkscape:connector-curvature="0"/>
    <path inkscape:connector-curvature="0" id="path4286" d="m 285.83022,1021.3406 -0.21917,0.5286 c 0,0 -76.4945,2.3768 -79.68253,1.4798 -3.18805,-0.8969 -85.03645,0.6078 -85.03645,0.6078 0,0 -86.77197,-0.3088 -88.543091,-0.6078 -1.771131,-0.299 -21.979228,1.5063 -21.979228,1.5063 l -5.1347511,3.0919 270.4509501,0 c 0,0 9.94387,0.5309 10.14427,-5.1003 0.009,-1.1676 -0.005,-0.6981 0,-1.5063 z" style="fill:#cfcfcf;fill-opacity:1;stroke:none"/>
    <path inkscape:connector-curvature="0" id="path4290" d="m 285.57722,1019.7527 -0.21916,0.4596 c 0,0 -76.49451,2.0668 -79.68254,1.2868 -3.18804,-0.7799 -85.03644,0.5286 -85.03644,0.5286 0,0 -86.771973,-0.2686 -88.543104,-0.5286 -1.771131,-0.2599 -21.979228,1.3099 -21.979228,1.3099 l -5.1347411,2.6887 270.4509531,0 c 0,0 9.94385,0.4617 10.14426,-4.4352 0.009,-1.0154 -0.005,-0.607 0,-1.3098 z" style="fill:#9e9e9e;fill-opacity:1;stroke:none"/>
    <path style="fill:#cfcfcf;fill-opacity:1;stroke:none" d="m 285.83022,1017.3787 -0.21917,0.5285 c 0,0 -76.4945,2.3768 -79.68253,1.4799 -3.18805,-0.897 -85.03645,0.6078 -85.03645,0.6078 0,0 -86.77197,-0.3089 -88.543091,-0.6078 -1.771131,-0.299 -21.979228,1.5063 -21.979228,1.5063 l -5.1347511,3.0918 270.4509501,0 c 0,0 9.94387,0.5309 10.14427,-5.1002 0.009,-1.1677 -0.005,-0.6981 0,-1.5063 z" id="path4292" inkscape:connector-curvature="0"/>
    <path style="fill:#9e9e9e;fill-opacity:1;stroke:none" d="m 285.57722,1015.7907 -0.21916,0.4596 c 0,0 -76.49451,2.0668 -79.68254,1.2869 -3.18804,-0.78 -85.03644,0.5285 -85.03644,0.5285 0,0 -86.771973,-0.2685 -88.543104,-0.5285 -1.771131,-0.26 -21.979228,1.3098 -21.979228,1.3098 l -5.1347411,2.6887 270.4509531,0 c 0,0 9.94385,0.4617 10.14426,-4.4351 0.009,-1.0155 -0.005,-0.6071 0,-1.3099 z" id="path4296" inkscape:connector-curvature="0"/>
    <path inkscape:connector-curvature="0" id="path4298" d="m 285.83022,1013.4167 -0.21917,0.5285 c 0,0 -76.4945,2.3768 -79.68253,1.4799 -3.18805,-0.897 -85.03645,0.6078 -85.03645,0.6078 0,0 -86.77197,-0.3088 -88.543091,-0.6078 -1.771131,-0.299 -21.979228,1.5063 -21.979228,1.5063 l -5.1347511,3.0918 270.4509501,0 c 0,0 9.94387,0.531 10.14427,-5.1002 0.009,-1.1677 -0.005,-0.6981 0,-1.5063 z" style="fill:#cfcfcf;fill-opacity:1;stroke:none"/>
    <path inkscape:connector-curvature="0" id="path4302" d="m 285.57722,1012.0051 -0.21916,0.4596 c 0,0 -76.49451,2.0668 -79.68254,1.2868 -3.18804,-0.7799 -85.03644,0.5286 -85.03644,0.5286 0,0 -86.771973,-0.2686 -88.543104,-0.5286 -1.771131,-0.2599 -21.979228,1.3099 -21.979228,1.3099 l -5.1347411,2.6887 270.4509531,0 c 0,0 9.94385,0.4617 10.14426,-4.4352 0.009,-1.0154 -0.005,-0.607 0,-1.3098 z" style="fill:#9e9e9e;fill-opacity:1;stroke:none"/>
    <path style="fill:#cfcfcf;fill-opacity:1;stroke:none" d="m 285.83022,1009.6311 -0.21917,0.5285 c 0,0 -76.4945,2.3768 -79.68253,1.4799 -3.18805,-0.897 -85.03645,0.6078 -85.03645,0.6078 0,0 -86.77197,-0.3089 -88.543091,-0.6078 -1.771131,-0.299 -21.979228,1.5062 -21.979228,1.5062 l -5.1347511,3.0919 270.4509501,0 c 0,0 9.94387,0.5309 10.14427,-5.1002 0.009,-1.1677 -0.005,-0.6981 0,-1.5063 z" id="path4304" inkscape:connector-curvature="0"/>
    <path style="fill:url(#linearGradient3211);fill-opacity:1;stroke:none" d="m 285.81937,1009.6355 -0.21707,0.5299 c 0,0 -76.4766,2.3622 -79.66464,1.4653 -3.18804,-0.8969 -85.06036,0.6235 -85.06036,0.6235 0,0 -86.762378,-0.3245 -88.533508,-0.6235 -1.771131,-0.299 -21.986082,1.5275 -21.986082,1.5275 l -5.1166446,3.0864 2.6048405,0 -2.8529154,1.4964 4.0312983,0 -3.7832234,2.2758 2.6668617,0 -2.9149366,1.5276 4.2793731,0 -4.0312982,2.4317 2.6668617,0 -2.9149366,1.5275 4.2793731,0 -4.0312982,2.4317 2.6668617,0 -2.9149366,1.5276 4.2793731,0 -4.0312982,2.4628 2.6048405,0 -2.8529154,1.4964 4.2793731,0 -4.0312982,2.4629 2.6048405,0 -2.8529154,1.4964 4.3413943,0 -4.0933194,2.4628 2.6048405,0 -2.8529154,1.4964 270.4380495,0 c 0,0 9.93985,0.47 10.14026,-4.4269 0.006,-0.6527 0.002,-0.6922 0,-0.8416 0.15228,-0.4015 0.23062,-0.8501 0.24807,-1.3406 0.009,-1.1677 -0.005,-0.6883 0,-1.4964 l -0.21707,0.53 c 0,0 -0.18377,-10e-5 -0.18606,0 0.0786,-0.2576 0.14298,-0.5153 0.15506,-0.8106 0.006,-0.6528 0.002,-0.6923 0,-0.8417 0.15228,-0.4015 0.23062,-0.85 0.24807,-1.3405 0.009,-1.1677 -0.005,-0.6883 0,-1.4964 l -0.21707,0.5299 c 0,0 -0.18377,0 -0.18606,0 0.0786,-0.2576 0.14298,-0.5153 0.15506,-0.8106 0.006,-0.6527 0.002,-0.6922 0,-0.8416 0.15228,-0.4015 0.23062,-0.8501 0.24807,-1.3406 0.009,-1.1677 -0.005,-0.6883 0,-1.4964 l -0.21707,0.53 c 0,0 -0.18377,-10e-5 -0.18606,0 0.0786,-0.2576 0.14298,-0.5153 0.15506,-0.8106 0.006,-0.6527 0.002,-0.6923 0,-0.8417 0.15354,-0.4029 0.23053,-0.8478 0.24807,-1.3405 0.009,-1.1677 -0.005,-0.6882 0,-1.4964 l -0.21707,0.4988 c 0,0 -0.15345,-10e-5 -0.15503,0 0.072,-0.247 0.11252,-0.4982 0.12403,-0.7795 0.006,-0.6527 0.002,-0.6922 0,-0.8416 0.15354,-0.4029 0.23053,-0.8479 0.24807,-1.3406 0.009,-1.1677 -0.005,-0.7194 0,-1.5276 l -0.21707,0.53 c 0,0 -0.15345,0 -0.15503,0 0.072,-0.247 0.11252,-0.4981 0.12403,-0.7794 0.006,-0.6769 0.002,-0.7105 0,-0.8729 0.15228,-0.4014 0.23062,-0.8188 0.24807,-1.3093 0.009,-1.1677 -0.005,-0.7195 0,-1.5277 l -0.21707,0.5301 c 0,0 -0.12302,-10e-5 -0.12403,0 0.0463,-0.1985 0.084,-0.4042 0.093,-0.6235 0.006,-0.6529 0.002,-0.6924 0,-0.8418 0.15229,-0.4015 0.23061,-0.85 0.24808,-1.3405 0.009,-1.1677 -0.005,-0.6882 0,-1.4964 z" id="path4519" inkscape:connector-curvature="0"/>
    <path style="font-size:medium;font-style:normal;font-variant:normal;font-weight:normal;font-stretch:normal;text-indent:0;text-align:start;text-decoration:none;line-height:normal;letter-spacing:normal;word-spacing:normal;text-transform:none;direction:ltr;block-progression:tb;writing-mode:lr-tb;text-anchor:start;baseline-shift:baseline;color:#000000;fill:url(#linearGradient3208);fill-opacity:1;stroke:none;stroke-width:6.47874641;marker:none;visibility:visible;display:inline;overflow:visible;enable-background:accumulate;font-family:Sans;-inkscape-font-specification:Sans" d="m 299.86826,991.36955 c 0.0177,2.75948 0.53655,8.16232 -2.64148,11.03665 -4.38781,3.9685 -6.03648,3.6089 -7.89893,4.0559 0,0 -5.6363,0.8123 -10.65466,0.8864 -0.0134,2e-4 -0.0199,-10e-5 -0.0331,0 l -256.242755,0.9294 c -11.542568,0.041 -20.8217355,9.4183 -21.74080056,20.6785 -0.0718277,0.8805 -0.0402036,0.3413 -0.0539705,0.6058 -0.013767,0.2644 -0.0122706,0.3231 -0.0124701,0.3236 0,12.0555 9.74606716,22.1392 21.84038116,22.1392 l 0.464685,0 c 2.648566,0.1954 4.44774,-1e-4 4.44774,0 l 248.14387,0 c 4.42656,0 11.98577,-1.889 14.04025,-2.8213 2.69087,-1.2212 6.81858,-4.1212 8.49643,-7.5922 2.72609,-5.6396 1.63583,-25.3933 1.75134,-25.7527 m -4.59811,23.5407 c -1.25367,1.7863 -3.79678,3.4521 -5.51686,3.7636 -3.0431,0.5509 -10.20152,1.9915 -14.17302,1.9915 l -248.608566,0 c 0,0 -9.5283,0.2115 -14.338968,-3.9166 -1.920313,-1.648 -3.3529559,-4.6257 -4.1158157,-7.3023 -0.3814348,-1.3383 -0.5975164,-2.5927 -0.730228,-3.4851 -0.066341,-0.4461 -0.1101059,-0.7933 -0.1327715,-1.029 -0.00299,-0.029 0.002,-0.042 0,-0.066 0.7178777,-7.7421 7.1404692,-14.179 14.8700542,-14.2061 l 256.275935,-0.8962 0.0331,0 c 5.08406,-0.069 12.05205,-2.6781 12.05205,-2.6781 6.66467,-3.8669 9.09741,-8.0076 8.95909,-9.4207 -0.62508,-0.1517 0.67337,15.0325 -0.64359,26.2111 -0.60818,5.1622 -1.70474,9.5396 -3.93043,11.0337 z" id="rect3194" inkscape:connector-curvature="0" sodipodi:nodetypes="csccccszcsccsssccssccsccccccccsc"/>
    <path style="fill:url(#linearGradient3205);fill-opacity:1;stroke:none" d="m 63.885169,752.11218 211.636401,0 c 13.50068,0 24.37035,10.86877 24.36945,24.36945 l -0.0145,216.90942 c -9.4e-4,14.04185 -9.73199,14.19465 -23.23267,14.20255 l -213.756318,0.1247 c 0.999452,-255.38626 -0.0821,0.04 0.997607,-255.60612 z" id="rect4358" inkscape:connector-curvature="0" sodipodi:nodetypes="csssscc"/>
    <path style="fill:none;stroke:#572e03;stroke-width:2.72956824;stroke-linecap:round;stroke-linejoin:round;stroke-miterlimit:4;stroke-opacity:1;stroke-dasharray:10.91827289, 10.91827289;stroke-dashoffset:0" d="m 69.834076,760.11105 200.023444,0 c 12.75986,0 23.03309,10.27237 23.03224,23.03224 l -0.0137,205.00712 c -8.9e-4,13.27139 -9.19797,13.41579 -21.95785,13.42319 l -202.027022,0.1179 c 0.944614,-241.37265 -0.07761,0.038 0.942868,-241.58045 z" id="path4607" inkscape:connector-curvature="0" sodipodi:nodetypes="csssscc"/>
    <path sodipodi:nodetypes="csssscc" inkscape:connector-curvature="0" id="path4603" d="m 69.834076,759.11344 200.023444,0 c 12.75986,0 23.03309,10.27238 23.03224,23.03224 l -0.0137,205.00712 c -8.9e-4,13.2713 -9.19797,13.4158 -21.95785,13.4232 l -202.027022,0.1179 c 0.944614,-241.37266 -0.07761,0.038 0.942868,-241.58046 z" style="fill:none;stroke:#ffdcae;stroke-width:2.72956824;stroke-linecap:round;stroke-linejoin:round;stroke-miterlimit:4;stroke-opacity:1;stroke-dasharray:10.91827289, 10.91827289;stroke-dashoffset:0"/>
    <path inkscape:connector-curvature="0" id="path5458" style="font-size:144px;font-style:normal;font-variant:normal;font-weight:normal;font-stretch:normal;text-align:start;line-height:125%;letter-spacing:0px;word-spacing:0px;writing-mode:lr-tb;text-anchor:start;opacity:0.4684015;fill:#bd7d53;fill-opacity:1;stroke:none;filter:url(#filter4883);font-family:cmmi10;-inkscape-font-specification:cmmi10" d="m 516.86935,217.09932 c -4.59377,0 -8.62502,-1.19531 -12.09375,-3.58594 -3.42188,-2.39062 -6.04688,-5.60155 -7.875,-9.63281 -1.78125,-4.07811 -2.67188,-8.36717 -2.67187,-12.86719 -10e-6,-6.84372 1.71093,-13.26559 5.13281,-19.26562 3.46874,-6.04683 8.15623,-10.87495 14.0625,-14.48438 5.90622,-3.60931 12.23434,-5.414 18.98438,-5.41406 4.12495,6e-5 7.71088,1.07819 10.75781,3.23437 3.09369,2.10944 4.64056,5.15631 4.64062,9.14063 -6e-5,5.5313 -2.20318,9.65629 -6.60937,12.375 -4.4063,2.67191 -9.37504,4.33597 -14.90625,4.99219 -5.53128,0.60941 -11.64846,0.91409 -18.35156,0.91406 l -0.42188,0 c -1.54689,5.71878 -2.32033,10.61721 -2.32031,14.69531 -2e-5,4.26564 0.98436,8.01564 2.95312,11.25 1.96873,3.23438 4.96873,4.85157 9,4.85156 5.71872,1e-5 11.20309,-1.31249 16.45313,-3.9375 5.29682,-2.62499 9.60932,-6.2578 12.9375,-10.89843 0.28119,-0.28124 0.65619,-0.42186 1.125,-0.42188 0.46869,2e-5 0.93744,0.28127 1.40625,0.84375 0.51556,0.51564 0.77337,1.00783 0.77344,1.47656 -7e-5,0.37502 -0.0938,0.65627 -0.28125,0.84375 -3.51569,4.92189 -8.25006,8.81251 -14.20313,11.67188 -5.95316,2.8125 -12.11722,4.21875 -18.49219,4.21875 m -8.50781,-38.32031 c 5.5781,3e-5 10.73435,-0.25778 15.46875,-0.77344 4.73434,-0.51559 9.02339,-1.80465 12.86719,-3.86719 3.8437,-2.10933 5.76557,-5.36714 5.76562,-9.77344 -5e-5,-1.78119 -0.49224,-3.32807 -1.47656,-4.64062 -0.98443,-1.35932 -2.27349,-2.39057 -3.86719,-3.09375 -1.54692,-0.70307 -3.1641,-1.05463 -4.85156,-1.05469 -4.07816,6e-5 -7.75785,1.10162 -11.03906,3.30469 -3.23441,2.20318 -5.90628,5.08599 -8.01563,8.64844 -2.10939,3.51567 -3.72658,7.26566 -4.85156,11.25" transform="matrix(0.67654502,0,0,0.67654502,-97.498675,844.54474)"/>
    <g id="g3230" transform="matrix(1.32714,0,0,2.0233949,-54.774152,-806.41344)">
      <rect ry="5.9856396" y="787.97882" x="106.91193" height="40.403065" width="142.65775" id="rect4627" style="fill:#e4e4e4;fill-opacity:1;stroke:none"/>
      <rect y="804.2287" x="119.4532" height="0.19604906" width="117.57526" id="rect4631" style="fill:#475bc1;fill-opacity:1;stroke:#475bc1;stroke-width:0.45628747;stroke-linecap:round;stroke-linejoin:round;stroke-miterlimit:4;stroke-opacity:1;stroke-dasharray:none;stroke-dashoffset:0"/>
      <rect style="fill:none;stroke:#475bc1;stroke-width:2.67542529;stroke-miterlimit:4;stroke-opacity:1;stroke-dasharray:none" id="rect4629" width="136.00607" height="33.537693" x="110.23779" y="791.4115" ry="4.9685469"/>
      <rect style="fill:#475bc1;fill-opacity:1;stroke:#475bc1;stroke-width:0.45628747;stroke-linecap:round;stroke-linejoin:round;stroke-miterlimit:4;stroke-opacity:1;stroke-dasharray:none;stroke-dashoffset:0" id="rect4633" width="117.57526" height="0.19604906" x="119.45317" y="815.22699"/>
      <g id="text5119" style="font-size:19.60340691px;font-style:italic;font-variant:normal;font-weight:bold;font-stretch:normal;line-height:125%;letter-spacing:0px;word-spacing:0px;fill:#000000;fill-opacity:1;stroke:none;font-family:HansHand;-inkscape-font-specification:HansHand Bold Italic">
        <path id="path5124" d="m 165.58174,813.14157 c 0.0784,-0.0131 0.19602,-0.0588 0.35286,-0.13723 0.23523,-0.10455 0.42473,-0.16989 0.5685,-0.19603 0.30057,-0.0653 0.67304,-0.2091 1.11739,-0.43128 0.82333,-0.45741 1.45718,-0.88868 1.90153,-1.29382 0.54888,-0.43127 0.82333,-0.76453 0.82335,-0.99977 -2e-5,-0.13069 -0.0262,-0.24831 -0.0784,-0.35287 -0.32673,0.0784 -0.60772,0.16337 -0.84294,0.25485 -0.32674,0.15683 -0.68614,0.32673 -1.07819,0.50969 -0.37901,0.18297 -0.79722,0.379 -1.25462,0.5881 -0.45742,0.19604 -0.82989,0.3594 -1.11739,0.49008 -0.28753,0.11763 -0.46396,0.18951 -0.5293,0.21564 -0.70573,0.19604 -1.45066,0.36593 -2.23478,0.50969 -0.77108,0.13069 -1.41146,0.19604 -1.92114,0.19603 -0.0653,10e-6 -0.1503,-0.007 -0.25484,-0.0196 -0.0784,0 -0.14377,0 -0.19604,0 -0.22217,-0.0392 -0.51622,-0.0653 -0.88215,-0.0784 -0.35286,-0.0261 -0.67959,-0.0392 -0.98017,-0.0392 -0.11762,0 -0.24831,0.007 -0.39207,0.0196 -0.0784,10e-6 -0.14376,10e-6 -0.19603,0 -0.30059,10e-6 -0.52276,-0.0523 -0.66652,-0.15682 -0.13069,-0.10455 -0.2091,-0.24831 -0.23524,-0.43128 0,0 0,-0.0523 0,-0.15683 -0.0131,-0.10454 -0.0196,-0.19603 -0.0196,-0.27444 0,-0.19603 0.0131,-0.39207 0.0392,-0.58811 0.0261,-0.19603 0.0653,-0.35285 0.11762,-0.47048 0.2091,-0.50968 0.44434,-0.99323 0.70572,-1.45065 0.26137,-0.45741 0.65344,-0.96709 1.1762,-1.52906 0.0392,-0.0523 0.16336,-0.098 0.37247,-0.13723 0.2091,-0.0523 0.47047,-0.098 0.78413,-0.13722 0.32672,-0.0523 0.62077,-0.0849 0.88216,-0.098 0.27444,-0.0261 0.65344,-0.0653 1.13699,-0.11762 0.61424,-0.0523 0.99977,-0.0849 1.15661,-0.098 0.52274,-0.0784 1.14352,-0.13721 1.86232,-0.17643 0.71878,-0.0523 1.36569,-0.0784 1.94074,-0.0784 0.0261,10e-6 0.13067,0.007 0.31365,0.0196 0.10454,10e-6 0.17642,10e-6 0.21564,0 0.20909,0.0131 0.48354,0.0457 0.82334,0.098 0.23523,0.0392 0.37899,0.0588 0.43128,0.0588 0.14374,10e-6 0.33324,-0.0261 0.5685,-0.0784 0.23522,-0.0523 0.477,-0.11762 0.72532,-0.19604 0.2483,-0.0784 0.46393,-0.15682 0.64691,-0.23524 0.19602,-0.0915 0.32671,-0.17642 0.39207,-0.25484 0.0523,-0.0784 0.0784,-0.19603 0.0784,-0.35287 -2e-5,-0.18295 -0.0588,-0.27443 -0.17644,-0.27444 -1e-5,1e-5 -0.0131,0.007 -0.0392,0.0196 -0.0392,0.0131 -0.0654,0.0196 -0.0784,0.0196 -1.20235,10e-6 -2.31975,-0.0131 -3.35218,-0.0392 -0.56197,-0.0131 -1.23502,-0.0327 -2.01915,-0.0588 -0.77108,-0.0261 -1.65976,-0.0588 -2.66606,-0.098 -0.31366,-0.0131 -0.60118,-0.0196 -0.86255,-0.0196 -0.24832,-0.0131 -0.62732,-0.0196 -1.137,-0.0196 -0.0915,-0.0784 -0.13723,-0.17642 -0.13722,-0.29405 -1e-5,-0.16988 0.0915,-0.35938 0.27444,-0.5685 0.35286,-0.54888 0.64038,-0.98669 0.86255,-1.31342 0.22217,-0.32672 0.3986,-0.57503 0.5293,-0.74493 0.14375,-0.16989 0.26137,-0.28751 0.35286,-0.35287 0.0915,-0.0784 0.19602,-0.13721 0.31365,-0.17643 0.16989,-0.14374 0.56196,-0.28097 1.17621,-0.41167 0.6273,-0.13067 1.39183,-0.19602 2.29359,-0.19603 0.39206,10e-6 0.7972,0.0131 1.21542,0.0392 1.24153,0.0784 2.27398,0.16338 3.09733,0.25485 0.8364,0.0784 1.68588,0.22218 2.54845,0.43127 0.18294,-0.10453 0.42472,-0.18948 0.72532,-0.25484 0.14374,-0.0392 0.23522,-0.0719 0.27445,-0.098 0.15681,-0.10454 0.30057,-0.26136 0.43128,-0.47048 0.13067,-0.20909 0.19601,-0.33978 0.19603,-0.39207 -2e-5,-0.13067 -0.0327,-0.24829 -0.098,-0.35286 -0.0654,-0.10454 -0.18298,-0.17641 -0.35286,-0.21564 -0.0654,-0.0131 -0.21566,-0.0261 -0.45088,-0.0392 -0.36595,-0.0131 -0.69267,-0.0457 -0.98017,-0.098 -0.75801,-0.10454 -1.69244,-0.15681 -2.80328,-0.15683 -0.53585,2e-5 -1.07167,0.0131 -1.60748,0.0392 -0.52277,0.0131 -1.08474,0.0327 -1.6859,0.0588 -0.73187,0.0392 -1.19582,0.0588 -1.39184,0.0588 -0.1307,1e-5 -0.3398,-0.0196 -0.62731,-0.0588 -0.31366,-0.0392 -0.64039,-0.0719 -0.98017,-0.098 -0.32673,-0.0261 -0.77761,-0.0392 -1.35263,-0.0392 -0.99325,0.5097 -1.6663,0.90177 -2.01915,1.1762 -0.35287,0.26139 -0.5293,0.55544 -0.5293,0.88215 0,0.41822 0.0523,0.62732 0.15683,0.62731 0.19603,10e-6 0.35939,0.0458 0.49009,0.13723 -0.0392,0.10456 -0.22218,0.36594 -0.5489,0.78413 -0.32673,0.40515 -0.82988,1.01286 -1.50946,1.82312 -0.41821,10e-6 -0.7384,0.007 -0.96057,0.0196 -0.2091,0.0131 -0.379,0.0392 -0.50969,0.0784 -0.13069,0.0392 -0.24177,0.0915 -0.33325,0.15682 -0.0784,0.0654 -0.18951,0.17644 -0.33326,0.33326 -0.0261,0.0262 -0.0392,0.0392 -0.0392,0.0392 -0.18297,0.19604 -0.32672,0.36594 -0.43127,0.50969 -0.10456,0.14376 -0.15683,0.28752 -0.15683,0.43127 0,0.0262 0.007,0.0523 0.0196,0.0784 0,0.0261 0,0.0457 0,0.0588 0.0653,0.15683 0.15683,0.26138 0.27445,0.31365 0.13069,0.0523 0.3986,0.10456 0.80374,0.15683 l 0.21564,0.0392 c -0.3398,0.62732 -0.79068,1.41799 -1.35264,2.37202 -0.64038,1.07165 -0.9671,1.7055 -0.98017,1.90153 0,0.28752 0.0131,0.60771 0.0392,0.96056 0.0392,0.35287 0.0849,0.66652 0.13722,0.94097 0.0392,0.19603 0.10455,0.33979 0.19604,0.43127 0.0915,0.0915 0.20256,0.1699 0.33325,0.23524 0.0131,0.0131 0.0327,0.0261 0.0588,0.0392 0.10455,0.0523 0.30712,0.0915 0.60771,0.11762 0.30058,0.0261 0.64691,0.0392 1.03898,0.0392 0.0131,0 0.14376,-0.007 0.39207,-0.0196 0.15682,0 0.26791,0 0.33326,0 0.10454,0 0.18296,0 0.23524,0 1.01937,-0.0261 1.81004,-0.098 2.37201,-0.21563 0.11761,-0.0261 0.30711,-0.0457 0.5685,-0.0588 0.52275,-0.0261 0.95402,-0.0915 1.29382,-0.19604 0.15682,-0.0523 0.28751,-0.098 0.39207,-0.13722 0.11761,-0.0392 0.27444,-0.0784 0.47048,-0.11762 0.52275,-0.2091 1.03244,-0.34633 1.52907,-0.41167" inkscape:connector-curvature="0"/>
        <path id="path5126" d="m 174.84343,807.22134 c -0.69266,1.11086 -1.23502,1.99302 -1.62708,2.64646 -0.379,0.64038 -0.65999,1.13046 -0.84295,1.47025 -0.1699,0.32673 -0.28098,0.5685 -0.33326,0.72533 -0.0392,0.14376 -0.0719,0.30712 -0.098,0.49008 -0.0131,0.0915 -0.0261,0.17644 -0.0392,0.25485 -0.0261,0.18297 -0.0392,0.33979 -0.0392,0.47048 0,0.27445 0.0653,0.53583 0.19604,0.78414 0.0784,0.15682 0.17643,0.23524 0.29405,0.23524 0.13069,0 0.32672,-0.0784 0.5881,-0.23524 0.23524,0 0.50315,-0.11762 0.80374,-0.35286 0.30058,-0.24831 0.45087,-0.58811 0.45088,-1.01938 -1e-5,-0.0261 -1e-5,-0.0653 0,-0.11762 -0.0131,-0.0653 -0.0196,-0.10455 -0.0196,-0.11762 -0.0915,0.19603 -0.20257,0.29405 -0.33325,0.29405 -0.1307,0 -0.19604,-0.0719 -0.19604,-0.21564 0.11762,-0.40513 0.25484,-0.81027 0.41167,-1.21541 0.15683,-0.4182 0.34633,-0.84294 0.5685,-1.27422 0.23524,-0.44434 0.51622,-0.92136 0.84295,-1.43105 0.33979,-0.50968 0.73839,-1.07165 1.19581,-1.68589 1.69895,-0.2091 2.86862,-0.35939 3.50901,-0.45088 0.65343,-0.0915 1.03897,-0.16989 1.1566,-0.23524 0.11761,-0.0523 0.27443,-0.10455 0.47048,-0.15683 0.19602,-0.0523 0.34631,-0.11108 0.45088,-0.17643 0.11761,-0.0784 0.22216,-0.20909 0.31365,-0.39207 0.0915,-0.0784 0.18296,-0.18295 0.27445,-0.31365 0.0915,-0.13068 0.13721,-0.2287 0.13722,-0.29405 -1e-5,-0.0392 -0.0262,-0.0588 -0.0784,-0.0588 -0.0654,10e-6 -0.18298,0.0392 -0.35286,0.11762 -0.0915,0.0392 -0.19605,0.0653 -0.31366,0.0784 -0.10456,0.0131 -0.28099,0.0196 -0.52929,0.0196 -0.19604,10e-6 -0.60118,0.0327 -1.21541,0.098 -0.98018,0.0915 -1.79699,0.15684 -2.45043,0.19603 -0.10455,1e-5 -0.22217,0.007 -0.35286,0.0196 -0.0523,0.0131 -0.0915,0.0196 -0.11762,0.0196 -0.0131,10e-6 -0.0261,-0.0131 -0.0392,-0.0392 -10e-6,-0.0261 0.0784,-0.13721 0.23524,-0.33325 0.0915,-0.11761 0.18296,-0.23524 0.27444,-0.35286 0.43127,-0.65344 0.81681,-1.23501 1.15661,-1.74471 0.33978,-0.52274 0.73838,-1.14352 1.1958,-1.86232 0.5881,-0.91481 0.94749,-1.47678 1.07819,-1.68589 0.20909,-0.35285 0.31365,-0.61423 0.31366,-0.78414 -10e-6,-0.14374 -0.0654,-0.21562 -0.19604,-0.21564 -0.1307,2e-5 -0.25485,0.0458 -0.37246,0.13723 -0.16991,0.11763 -0.30713,0.19604 -0.41167,0.23524 -0.10457,0.0262 -0.20912,0.0457 -0.31366,0.0588 -0.0915,10e-6 -0.15684,0.0131 -0.19603,0.0392 -0.0784,0.0523 -0.22872,0.27447 -0.45088,0.66652 -0.20911,0.40515 -0.37901,0.70574 -0.50969,0.90176 -0.58811,1.07166 -1.10433,1.97342 -1.54867,2.70527 -0.44435,0.7188 -0.98671,1.516 -1.62708,2.39161 -0.19604,10e-6 -0.49009,0.085 -0.88216,0.25485 -0.27445,0.11762 -0.45741,0.17643 -0.54889,0.17643 l -0.0196,0 c -0.1699,0.0131 -0.31366,0.0719 -0.43128,0.17643 -0.11762,0.0915 -0.28098,0.3398 -0.49008,0.74493 -0.0784,0.1699 -0.11763,0.3594 -0.11762,0.5685 -1e-5,0.14376 0.0196,0.379 0.0588,0.70572 0.16989,-0.30058 0.37246,-0.54889 0.6077,-0.74493 0.24831,-0.2091 0.42474,-0.31365 0.52929,-0.31366 0.0261,10e-6 0.0392,0.0131 0.0392,0.0392 0,0.0131 -0.0196,0.0457 -0.0588,0.098" inkscape:connector-curvature="0"/>
        <path id="path5128" d="m 183.98291,805.45703 c -1e-5,-0.0131 0.007,-0.0327 0.0196,-0.0588 -1e-5,-0.0261 -1e-5,-0.0523 0,-0.0784 -1e-5,-0.0523 -0.0131,-0.15682 -0.0392,-0.31366 -0.0261,-0.16988 -0.0457,-0.32018 -0.0588,-0.45088 -0.0392,-0.18295 -0.11762,-0.30711 -0.23524,-0.37246 -0.10456,-0.0784 -0.25485,-0.11761 -0.45088,-0.11762 -0.0131,10e-6 -0.0392,10e-6 -0.0784,0 -0.11763,0.0131 -0.22218,0.0327 -0.31366,0.0588 -0.0784,0.0262 -0.13722,0.0784 -0.17643,0.15683 -0.2091,0.31366 -0.49662,0.81028 -0.86255,1.48986 -0.35286,0.67959 -0.66652,1.33957 -0.94096,1.97994 -0.0784,0.1699 -0.15683,0.34633 -0.23524,0.52929 -0.30059,0.64039 -0.58157,1.22849 -0.84295,1.76431 -0.26138,0.52276 -0.62077,1.19581 -1.07818,2.01915 -0.11763,0.22217 -0.30059,0.54236 -0.5489,0.96057 -0.26138,0.45741 -0.39207,0.73839 -0.39207,0.84294 0,0.0915 0.0523,0.1895 0.15683,0.29405 0.2091,0.22218 0.43781,0.33326 0.68612,0.33326 0.19603,0 0.38553,-0.0719 0.5685,-0.21564 l 0.82334,-0.52929 c 0.56196,-0.379 0.9475,-0.63384 1.1566,-0.76453 0.2091,-0.13069 0.40513,-0.24177 0.5881,-0.33326 0.14376,-0.0653 0.30712,-0.26138 0.49009,-0.5881 0.14375,-0.26138 0.25484,-0.39207 0.33326,-0.39207 0.0653,0 0.17642,-0.0457 0.33325,-0.13722 0.1699,-0.0915 0.35286,-0.2091 0.5489,-0.35286 0.2091,-0.15683 0.39206,-0.30712 0.5489,-0.45088 0.15682,-0.14376 0.27444,-0.27445 0.35286,-0.39207 0.0523,-0.0915 0.16335,-0.16336 0.33325,-0.21564 0.13069,-0.0261 0.21563,-0.0653 0.25485,-0.11762 0.11761,-0.14375 0.28097,-0.30711 0.49008,-0.49008 0.22217,-0.18296 0.46394,-0.36593 0.72533,-0.5489 -0.0523,0.18297 -0.11763,0.39207 -0.19603,0.62731 -0.0784,0.22218 -0.16337,0.42474 -0.25485,0.60771 -0.0653,0.11762 -0.1307,0.27445 -0.19603,0.47048 -0.0523,0.1699 -0.10456,0.31366 -0.15683,0.43127 l -0.0588,0.13723 c -0.20911,0.43127 -0.35287,0.73839 -0.43127,0.92136 -0.0784,0.18296 -0.17644,0.41167 -0.29406,0.68612 -0.10455,0.26138 -0.1895,0.51622 -0.25484,0.76453 -0.0653,0.23524 -0.098,0.42474 -0.098,0.5685 0.0261,0.0653 0.098,0.098 0.21564,0.098 0.14375,0 0.32018,-0.0327 0.52929,-0.098 0.22217,-0.0654 0.40513,-0.13723 0.5489,-0.21564 0.14375,-0.0653 0.28097,-0.15683 0.41167,-0.27445 0.14375,-0.11762 0.32671,-0.30712 0.54889,-0.5685 -0.20911,-0.11762 -0.31366,-0.25484 -0.31365,-0.41167 -1e-5,-0.13069 0.10454,-0.47701 0.31365,-1.03898 0.10455,-0.24831 0.1895,-0.47048 0.25485,-0.66651 0.0523,-0.1699 0.17642,-0.37247 0.37246,-0.60771 0.22217,-0.27444 0.44434,-0.60117 0.66652,-0.98017 0.23523,-0.39206 0.52928,-0.97363 0.88215,-1.7447 0.14375,-0.31365 0.32018,-0.67305 0.52929,-1.07819 0.18296,-0.36592 0.27444,-0.58156 0.27445,-0.64691 -10e-6,-0.0784 -0.0653,-0.12415 -0.19603,-0.13723 -0.0654,-0.0131 -0.16337,-0.0327 -0.29405,-0.0588 -0.24832,-0.0392 -0.41822,-0.0588 -0.50969,-0.0588 -0.11763,10e-6 -0.21565,0.0327 -0.29405,0.098 -0.60118,0.48356 -1.4964,1.22849 -2.68567,2.23479 -1.07166,0.91483 -1.85579,1.56827 -2.35241,1.96034 -0.26138,0.20911 -0.48355,0.39207 -0.66651,0.54889 -0.1699,0.15683 -0.38554,0.3594 -0.64692,0.60771 -0.10455,0.10455 -0.18297,0.18297 -0.23524,0.23524 -0.0523,0.0523 -0.13722,0.13723 -0.25484,0.25484 -0.22218,0.26139 -0.41821,0.44435 -0.5881,0.5489 -0.1699,0.10455 -0.49009,0.22217 -0.96057,0.35286 0.0915,-0.39206 0.24177,-0.7776 0.45088,-1.1566 0.2091,-0.39206 0.48355,-0.86908 0.82334,-1.43105 0,10e-6 0.0588,-0.0915 0.17643,-0.27445 0.11762,-0.18296 0.30712,-0.48354 0.5685,-0.90175 0.24831,-0.39207 0.43781,-0.69265 0.5685,-0.90176 0.0653,-0.0915 0.13722,-0.16335 0.21564,-0.21564 0.0915,-0.0653 0.16335,-0.14375 0.21563,-0.23524 0.0261,-0.0392 0.098,-0.13721 0.21564,-0.29405 0.26137,-0.36592 0.47048,-0.67958 0.62731,-0.94096 0.16989,-0.27444 0.29405,-0.51622 0.37247,-0.72533" inkscape:connector-curvature="0"/>
        <path id="path5130" d="m 189.91171,810.86757 c -0.0392,0.0653 -0.11762,0.20257 -0.23524,0.41167 -0.10455,0.20911 -0.22217,0.43128 -0.35286,0.66652 -0.31366,0.61424 -0.53583,1.03245 -0.66652,1.25462 -0.11762,0.2091 -0.2287,0.41167 -0.33325,0.6077 -0.0523,0.10455 -0.0849,0.16336 -0.098,0.17643 -0.10455,0.1699 -0.15683,0.27445 -0.15683,0.31366 0,0.0261 0.0261,0.0588 0.0784,0.098 0.0261,0.0261 0.0653,0.0392 0.11762,0.0392 0.15682,0 0.37246,-0.0915 0.64691,-0.27445 0.28751,-0.18296 0.49662,-0.35286 0.62731,-0.50968 0.32672,-0.39207 0.66651,-0.86255 1.01937,-1.41145 0.35286,-0.56196 0.80374,-1.30689 1.35264,-2.23479 0.53582,-0.90175 0.90829,-1.50945 1.11739,-1.82312 0.22217,-0.36592 0.379,-0.64037 0.47049,-0.82334 0.10454,-0.18296 0.18949,-0.35285 0.25484,-0.50969 0.0653,-0.15682 0.12415,-0.32671 0.17643,-0.50969 0.0523,-0.18295 0.13722,-0.50968 0.25484,-0.98017 0.0392,-0.13068 0.0588,-0.2483 0.0588,-0.35286 -10e-6,-0.15681 -0.0392,-0.26137 -0.11763,-0.31365 -0.0784,-0.0653 -0.19604,-0.11108 -0.35286,-0.13723 -0.0261,10e-6 -0.0523,10e-6 -0.0784,0 -0.0653,-0.013 -0.098,-0.0196 -0.098,-0.0196 -0.26138,10e-6 -0.46395,0.098 -0.6077,0.29405 -0.0915,0.10456 -0.27446,0.28099 -0.5489,0.52929 -0.19604,0.18298 -0.3594,0.33981 -0.49008,0.47049 -0.11763,0.13069 -0.18297,0.23525 -0.19604,0.31365 0,0.11763 0.0196,0.23525 0.0588,0.35286 0.0523,0.10456 0.13069,0.16991 0.23524,0.19604 -0.18297,0.40514 -0.36593,0.81028 -0.54889,1.21541 -0.18297,0.39207 -0.37247,0.78414 -0.5685,1.1762 -0.19604,0.39207 -0.38554,0.75147 -0.5685,1.07819 -0.1699,0.31366 -0.32019,0.5489 -0.45088,0.70572 m 6.48873,-11.31116 c -0.0653,-0.0523 -0.1503,-0.0784 -0.25484,-0.0784 -0.11763,2e-5 -0.25486,0.0327 -0.41168,0.098 -0.14376,0.0654 -0.28752,0.15031 -0.43127,0.25484 -0.24832,0.15685 -0.41168,0.32021 -0.49009,0.49009 -0.0784,0.16991 -0.11762,0.41168 -0.11762,0.72532 0,0.37902 0.0849,0.71881 0.25485,1.01938 0.0523,0.0915 0.10454,0.13724 0.15683,0.13723 0.0523,10e-6 0.15028,-0.0719 0.29405,-0.21564 0.32671,-0.23523 0.59462,-0.47047 0.80374,-0.70572 0.20909,-0.23523 0.33978,-0.51621 0.39206,-0.84295 0.0261,-0.14375 0.0392,-0.2679 0.0392,-0.37247 -1e-5,-0.24829 -0.0784,-0.41819 -0.23524,-0.50968" inkscape:connector-curvature="0"/>
      </g>
      <rect style="fill:url(#linearGradient3242);fill-opacity:1;stroke:none" id="rect4635" width="142.65775" height="40.403065" x="106.91193" y="787.97882" ry="5.9856396"/>
    </g>
    <g id="g3296" transform="matrix(1.5408093,0,0,1.1076768,-145.10566,-113.99513)">
      <path id="rect4691" d="m 194.36448,1019.3407 -13.65474,18.1752 19.3598,14.5276 4.83216,0 11.53482,-15.6811 -22.07204,-17.0217 z" style="fill:url(#linearGradient3305);fill-opacity:1;stroke:none" inkscape:connector-curvature="0"/>
      <g id="g3279">
        <path inkscape:connector-curvature="0" style="fill:url(#linearGradient3307);fill-opacity:1;stroke:none" d="m 207.51433,1035.0422 -12.59478,16.9906 36.50616,0 -23.91138,-16.9906 z" id="rect4687"/>
        <path style="fill:url(#linearGradient3309);fill-opacity:1;stroke:none" d="m 207.46541,1034.997 0,17.0841 c 4.28579,-2.5426 8.07132,-5.4368 12.3142,-8.0121 3.74458,2.5953 7.99096,5.4806 11.78423,8.0432 l 0,-17.1152 -24.09843,0 z m 24.09843,17.1152 c -8.0344,-0.028 -16.06395,-0.034 -24.09843,-0.031 l 0,0.031 24.09843,0 z" id="path4507" inkscape:connector-curvature="0"/>
        <path style="fill:url(#linearGradient3311);fill-opacity:1;stroke:none" d="m 194.47994,1019.2775 0,17.084 c 3.90514,-2.5527 7.35702,-5.4576 11.22307,-8.0432 3.41199,2.6056 7.26792,5.5017 10.72428,8.0743 l 0,-17.1151 -21.94735,0 z m 21.94735,17.1151 c -7.32082,-0.029 -14.62647,-0.033 -21.94735,-0.031 l 0,0.031 21.94735,0 z" id="rect4483" inkscape:connector-curvature="0"/>
        <path inkscape:connector-curvature="0" style="fill:url(#linearGradient3313);fill-opacity:1;stroke:none" d="m 245.36711,1023.1441 -14.12236,18.6116 13.71709,10.2878 14.83939,0 8.51084,-11.8466 -22.94496,-17.0528 z" id="rect4677"/>
        <path style="fill:url(#linearGradient3315);fill-opacity:1;stroke:none" d="m 245.35522,1023.1364 0,17.084 c 4.07799,-2.6799 7.68472,-5.7341 11.72188,-8.4485 3.563,2.7354 7.58258,5.7788 11.1919,8.4796 l 0,-17.1151 -22.91378,0 z m 22.91378,17.1151 c -7.64482,-0.03 -15.26889,-0.034 -22.91378,-0.031 l 0,0.031 22.91378,0 z" id="path4497" inkscape:connector-curvature="0"/>
      </g>
    </g>
  </g>
</svg>